<?xml version="1.0" encoding="UTF-8" standalone="no"?>
<!-- Created with Inkscape (http://www.inkscape.org/) -->

<svg
   width="229.99991mm"
   height="229.99992mm"
   viewBox="0 0 229.99991 229.99992"
   version="1.1"
   id="svg1"
   xml:space="preserve"
   xmlns:inkscape="http://www.inkscape.org/namespaces/inkscape"
   xmlns:sodipodi="http://sodipodi.sourceforge.net/DTD/sodipodi-0.dtd"
   xmlns="http://www.w3.org/2000/svg"
   xmlns:svg="http://www.w3.org/2000/svg"><sodipodi:namedview
     id="namedview1"
     pagecolor="#ffffff"
     bordercolor="#000000"
     borderopacity="0.25"
     inkscape:showpageshadow="2"
     inkscape:pageopacity="0.0"
     inkscape:pagecheckerboard="0"
     inkscape:deskcolor="#d1d1d1"
     inkscape:document-units="mm"
     showguides="true" /><defs
     id="defs1" /><g
     inkscape:label="Слой 1"
     inkscape:groupmode="layer"
     id="layer1"
     transform="translate(-63.425138,-18.579566)"><path
       id="path6"
       style="fill:#4b3cd4;fill-opacity:1;fill-rule:evenodd;stroke-width:0.36636;stroke-dasharray:0.36636, 0.36636"
       d="M 178.42535,18.579567 A 115,115 0 0 0 63.425136,133.57978 115,115 0 0 0 178.42535,248.57948 115,115 0 0 0 293.42505,133.57978 115,115 0 0 0 178.42535,18.579567 Z m -0.32039,16.604155 c 2.55773,-0.02454 5.09825,0.121645 6.66367,0.447518 6.9832,1.453694 13.16379,4.812135 18.03766,9.801985 3.35091,3.430636 4.34849,4.97718 11.89127,18.435568 1.18835,2.120346 3.32313,5.915156 4.74389,8.433076 1.42075,2.51793 5.04911,8.96944 8.06308,14.33659 3.01396,5.36717 6.2523,11.113762 7.19646,12.770282 1.70979,2.999839 11.03021,19.498659 13.47566,23.854359 0.70683,1.25895 1.78585,3.15611 2.39779,4.21628 0.61193,1.06018 2.89461,5.07207 5.07307,8.91522 2.17845,3.84315 5.49593,9.6444 7.37216,12.8912 6.44514,11.15327 8.32227,16.42543 8.66356,24.33547 0.25121,5.82224 -0.64482,10.44979 -2.95486,15.26108 -1.66449,3.46675 -3.08262,5.44859 -5.74177,8.02328 -4.71065,4.56105 -10.7181,7.6043 -17.80046,9.01703 -2.38961,0.47665 -8.97057,0.82546 -10.72545,0.56844 -0.38835,-0.0569 -1.55167,-0.22093 -2.58485,-0.36432 -6.8132,-0.94555 -13.44515,-3.92903 -18.77664,-8.44652 -2.08049,-1.76285 -3.17664,-2.9627 -7.89099,-8.63823 -1.15584,-1.39149 -3.13738,-3.60435 -4.40335,-4.91753 -1.26596,-1.31316 -2.13956,-2.32367 -1.94148,-2.24586 0.96585,0.37942 5.12037,3.20605 8.40052,5.71542 7.70179,5.89196 11.52479,8.10447 17.78186,10.29188 5.17772,1.81008 11.99008,2.3422 16.95607,1.32446 11.81704,-2.42181 20.10407,-10.22976 21.54184,-20.29592 0.34279,-2.40003 0.17556,-7.10482 -0.33848,-9.50949 -1.1261,-5.26781 -3.05424,-9.26556 -11.27063,-23.37222 C 241.80175,128.63578 241.35226,127.8556 235.8234,118.08254 226.95797,102.41163 225.267,99.406531 210.80994,73.627369 202.83422,59.405478 202.88037,59.480085 200.7997,57.34361 c -2.18639,-2.24505 -3.97779,-3.357261 -7.16546,-4.448824 -5.55184,-1.901137 -12.18325,-0.875777 -15.87913,2.45463 -1.84409,1.661724 -1.7601,1.52294 -12.0835,19.964673 -1.22404,2.18661 -2.30688,4.08376 -2.40657,4.21628 -0.1937,0.25746 -1.07469,1.81321 -6.07095,10.72234 -1.7465,3.11428 -4.04618,7.180302 -5.11028,9.035632 -2.48969,4.340909 -8.27443,14.539569 -11.13886,19.637559 -1.22862,2.18661 -4.87575,8.63814 -8.10493,14.33659 -3.22917,5.69848 -6.51471,11.4992 -7.30084,12.89069 -0.78612,1.39148 -2.25937,3.95748 -3.27422,5.70249 -2.44957,4.21194 -2.76983,4.97747 -2.77606,6.63784 -0.004,1.19947 0.0887,1.48625 0.72244,2.22519 1.32451,1.54432 3.16275,1.66196 5.82703,0.37207 2.12208,-1.0274 4.06237,-3.16869 6.01049,-6.63371 0.89126,-1.58525 5.98618,-10.68919 11.3223,-20.2308 5.33613,-9.54161 10.7388,-19.1918 12.00547,-21.44469 2.42909,-4.32031 17.72721,-31.695251 20.46697,-36.624121 3.84722,-6.92122 4.47871,-8.024096 5.3237,-9.300208 1.10968,-1.67582 2.91073,-3.355074 4.38888,-4.09174 0.92921,-0.463077 1.5143,-0.562668 3.36104,-0.572058 2.15722,-0.011 2.29632,0.02202 3.95014,0.926558 2.89183,1.5817 4.31099,3.389266 8.2672,10.530628 1.86504,3.36659 3.73542,6.71718 4.15634,7.44605 0.42094,0.72887 3.93565,7.01794 7.81089,13.97538 3.87523,6.957421 8.63264,15.468501 10.57196,18.914091 7.90072,14.03711 8.52813,15.13663 15.25695,26.74565 4.25474,7.34053 7.55368,13.04968 9.11934,15.78198 2.92082,5.09728 5.29511,10.53684 6.20531,14.21619 0.67202,2.71658 0.62788,7.89572 -0.0889,10.43864 -2.19801,7.79803 -8.73432,12.86737 -17.46974,13.54853 -6.81712,0.53159 -14.32271,-2.69374 -22.29011,-9.57823 -15.42129,-13.32527 -17.00739,-14.56082 -22.18056,-17.28111 -2.98447,-1.56938 -4.87032,-2.29668 -8.00571,-3.08767 -2.09182,-0.52771 -2.99947,-0.62481 -5.77691,-0.61598 -5.17154,0.0165 -8.83255,1.01462 -14.84096,4.04626 -3.90977,1.97273 -8.03176,4.69345 -10.87065,7.17476 -4.61631,4.03486 -11.76802,9.07467 -17.25217,12.15791 -3.09334,1.73909 -7.46037,3.26321 -11.64167,4.06332 -3.2079,0.61384 -8.52297,0.55172 -11.53315,-0.13488 -2.66491,-0.60786 -6.04006,-1.83598 -8.47286,-3.08301 -1.56377,-0.80157 -5.430993,-3.40682 -7.150473,-4.81728 l -0.7953,-0.65267 0.17518,0.83819 c 1.18657,5.67428 7.306453,11.59273 14.567593,14.08803 2.81362,0.96691 4.99628,1.36095 8.32559,1.50326 9.49586,0.40592 19.31546,-3.3949 29.89068,-11.56983 2.78036,-2.1493 6.03508,-4.39594 7.94421,-5.48391 l 1.41232,-0.80511 -3.07216,3.25561 c -1.68958,1.79035 -3.95598,4.38641 -5.03639,5.76916 -6.62779,8.48246 -13.11056,12.76936 -22.60688,14.94896 -3.19574,0.73348 -10.57379,0.91414 -13.92164,0.34106 -4.15852,-0.71185 -7.12395,-1.69706 -10.90992,-3.6251 -3.944093,-2.00856 -5.987463,-3.46701 -8.596903,-6.13503 -5.99143,-6.12595 -8.92138,-13.39869 -8.93175,-22.17125 -0.008,-6.6527 1.977699,-13.35513 5.90042,-19.9161 0.82996,-1.38818 4.83638,-8.4218 8.96844,-15.74478 0.710393,-1.25895 3.071853,-5.43329 5.247743,-9.27643 2.1759,-3.84316 4.53831,-8.01748 5.24929,-9.27644 2.36849,-4.19398 3.71285,-6.56869 8.04809,-14.21619 2.36644,-4.17446 6.25524,-11.059641 8.64185,-15.300351 2.38661,-4.24073 4.68961,-8.30676 5.11803,-9.03563 0.42842,-0.72887 2.73554,-4.79491 5.12682,-9.03562 12.96646,-22.994755 12.98378,-23.023842 15.71429,-25.995314 4.69694,-5.111407 11.15678,-8.769793 18.19682,-10.305831 1.63428,-0.356577 4.2093,-0.55165 6.76703,-0.576192 z m -2.1332,9.782349 c -6.24722,-0.0073 -11.77115,2.337849 -16.12253,6.843509 -2.40861,2.494005 -1.43495,0.88777 -13.66635,22.540739 -0.93575,1.65654 -3.60609,6.37334 -5.93453,10.48154 -2.32842,4.10819 -4.99984,8.82447 -5.93606,10.481012 -5.63154,9.964239 -8.02358,14.203759 -9.58495,16.987079 -0.96644,1.72279 -2.04903,3.62043 -2.40605,4.21679 -0.35703,0.59635 -1.90181,3.30669 -3.43287,6.02341 -4.2883,7.6091 -11.27244,19.77825 -18.13481,31.59807 -1.587943,2.73509 -3.068443,5.50008 -3.290243,6.14433 -0.22179,0.64423 -0.45505,2.05601 -0.5178,3.13727 -0.38388,6.61452 4.473693,14.12297 11.357973,17.55655 3.66189,1.8264 5.23077,2.16413 10.00352,2.15388 3.53932,-0.008 4.40043,-0.0867 6.11952,-0.56172 3.84655,-1.06301 6.43223,-2.18012 10.82673,-4.67776 2.21878,-1.26106 7.50021,-5.09262 11.06237,-8.02535 9.9015,-8.15195 18.77776,-12.39971 27.92905,-13.36559 11.00946,-1.162 22.28611,2.8754 33.39331,11.95483 2.58207,2.1107 3.03801,2.504 7.99331,6.89725 5.17095,4.58444 8.28913,6.89375 11.66285,8.6372 4.08447,2.11074 8.03624,2.62594 11.30577,1.47381 v -5.1e-4 c 0.72327,-0.25486 1.63762,-0.63387 2.0314,-0.84233 1.19724,-0.6338 3.22682,-2.69344 3.89744,-3.9548 2.20162,-4.14106 1.66339,-8.58709 -1.94613,-16.07964 -1.62806,-3.37953 -2.68085,-5.23745 -8.94313,-15.78198 -3.39919,-5.72364 -8.82388,-15.06129 -13.36766,-23.01048 -1.3635,-2.38541 -2.77071,-4.82504 -3.12694,-5.42138 -0.35623,-0.59635 -1.89059,-3.30721 -3.41012,-6.02392 -10.26905,-18.359519 -13.04105,-23.353561 -15.51327,-27.950231 -1.53239,-2.84923 -3.36797,-6.25461 -4.07882,-7.5675 -1.38572,-2.55928 -2.55941,-4.0614 -3.60753,-4.61625 -0.8418,-0.44563 -2.16679,-0.44126 -3.01842,0.0093 -1.49909,0.79359 -1.46708,0.73996 -11.84786,19.88457 -7.24361,13.358921 -14.04761,25.481581 -23.39599,41.684281 -2.33203,4.04193 -4.51556,7.83729 -4.8519,8.43411 l -0.61133,1.08521 4.52531,-2.29392 c 16.23382,-8.22898 32.06369,-9.31871 49.11121,-3.38015 1.48651,0.51781 2.74347,0.90039 2.79311,0.84956 0.0749,-0.0767 -2.40182,-4.55419 -6.19497,-11.20035 -16.75215,-29.352279 -16.36489,-28.65141 -16.36489,-29.657109 0,-1.05359 1.48058,-4.21055 3.60753,-7.690492 0.85048,-1.39147 1.63995,-2.688 1.75442,-2.88147 0.15733,-0.26592 0.41198,0.02793 1.04334,1.20457 6.50428,12.122601 9.11219,16.725521 20.19929,35.651061 12.00073,20.48512 20.97995,35.5573 24.11584,40.4797 1.43713,2.25584 3.0556,5.65557 3.65662,7.68118 0.64989,2.19043 0.5564,3.8555 -0.26768,4.75889 -0.49251,0.53992 -0.71334,0.60505 -1.75287,0.51831 -1.75768,-0.14665 -2.87796,-1.05561 -8.33386,-6.75979 -9.60458,-10.04173 -17.08993,-16.04653 -25.10647,-20.14089 -14.43663,-7.37336 -29.01348,-7.38299 -43.52345,-0.0279 -4.49073,2.27635 -7.77274,4.44008 -14.11076,9.30228 -5.59061,4.28879 -8.2505,6.14438 -10.94817,7.63674 -5.25495,2.90707 -10.61532,4.06317 -14.80736,3.1936 -6.41517,-1.3307 -9.9181,-5.99048 -8.61033,-11.45356 0.41897,-1.75022 0.47413,-1.85521 7.81451,-14.82804 2.38072,-4.20751 9.13946,-16.1691 16.20159,-28.67318 1.57179,-2.78297 4.10924,-7.28268 5.63893,-9.99939 3.10785,-5.5195 13.8438,-24.505601 16.48582,-29.154811 4.95991,-8.72807 10.35957,-18.311697 11.87938,-21.083469 2.20872,-4.028183 3.36038,-5.681658 5.21002,-7.48068 2.02099,-1.965704 2.95879,-2.662183 5.22345,-3.879867 l 1.9234,-1.034045 z m 0.0114,62.634939 c 0.1721,0 2.94119,4.75637 10.66189,18.31258 1.47178,2.58417 2.64862,4.73306 2.61482,4.77541 -0.0338,0.0423 -1.52818,-0.11135 -3.32072,-0.34158 -7.60284,-0.97655 -16.33108,-0.24382 -23.70967,1.99058 -0.37617,0.11392 -0.32498,-0.0817 0.33383,-1.27796 0.42776,-0.77668 1.48734,-2.65869 2.3549,-4.18269 0.86755,-1.52401 2.92514,-5.15637 4.57233,-8.07186 1.64718,-2.91548 3.33816,-5.89759 3.75739,-6.62647 0.41924,-0.72888 1.17259,-2.05672 1.67432,-2.95124 0.50171,-0.89453 0.97901,-1.62677 1.06091,-1.62677 z m 2.15956,61.75644 c 4.7882,-0.20363 8.71418,4.01061 7.70134,9.0351 -0.75444,3.74269 -3.36424,6.05117 -7.04763,6.23321 -1.11664,0.0552 -2.08137,-0.0337 -2.62568,-0.24184 -2.33782,-0.89419 -3.5521,-1.99513 -4.69377,-4.25659 -0.44529,-0.88204 -0.5481,-1.46657 -0.5519,-3.13262 -0.005,-1.87658 0.0627,-2.17579 0.7984,-3.5724 1.05725,-2.00722 2.29511,-3.06548 4.32583,-3.69693 0.70732,-0.21994 1.40938,-0.33885 2.09341,-0.36793 z" /></g></svg>
